<?xml version="1.0" encoding="UTF-8" standalone="no"?>

<svg
   width="70"
   height="70"
   id="svg4490"
   version="1.0"
   xmlns="http://www.w3.org/2000/svg">
  <defs
     id="defs4492" />
  <g
     id="pin-anchors"
     data-rlvr-role="pin-anchors"
     display="none">
    <circle
       id="pin-in1"
       data-pin="in1"
       cx="0"
       cy="24"
       r="0" />
    <circle
       id="pin-in2"
       data-pin="in2"
       cx="0"
       cy="46"
       r="0" />
    <circle
       id="pin-out"
       data-pin="out"
       cx="70"
       cy="35"
       r="0" />
    <circle
       id="pin-vcc"
       data-pin="vcc"
       cx="35"
       cy="0"
       r="0" />
    <circle
       id="pin-gnd"
       data-pin="gnd"
       cx="35"
       cy="70"
       r="0" />
  </g>
  <g
     id="layer1">
    <path
       id="body"
       d="M 16,10 C 33,10 52,13 66,35 C 52,57 33,60 16,60 C 25,45 25,25 16,10 Z"
       style="fill:#ffffff;stroke:#000000;stroke-width:1;stroke-linecap:round;stroke-linejoin:round;stroke-opacity:1" />
    <path
       id="input-arc"
       d="M 16,10 C 26,25 26,45 16,60"
       style="fill:none;stroke:#000000;stroke-width:1;stroke-linecap:round;stroke-linejoin:round;stroke-opacity:1" />
    <path
       id="pins"
       d="M 0,24 H 21 M 0,46 H 21 M 66,35 H 70 M 35,0 V 12 M 35,58 V 70"
       style="fill:none;stroke:#000000;stroke-width:1;stroke-linecap:round;stroke-linejoin:round;stroke-opacity:1" />
  </g>
</svg>
