<?xml version="1.0" encoding="UTF-8" standalone="no"?>
<!-- Created with Inkscape (http://www.inkscape.org/) -->

<svg
   width="38.113178"
   height="50.838444"
   id="svg4490"
   version="1.0"
   xmlns="http://www.w3.org/2000/svg"
   xmlns:svg="http://www.w3.org/2000/svg"
   xmlns:rdf="http://www.w3.org/1999/02/22-rdf-syntax-ns#"
   xmlns:cc="http://creativecommons.org/ns#"
   xmlns:dc="http://purl.org/dc/elements/1.1/">
  <defs
     id="defs4492" />
  <metadata
     id="metadata4495">
    <rdf:RDF>
      <cc:Work
         rdf:about="">
        <dc:format>image/svg+xml</dc:format>
        <dc:type
           rdf:resource="http://purl.org/dc/dcmitype/StillImage" />
        <dc:title />
      </cc:Work>
    </rdf:RDF>
  </metadata>
  <g
     id="pin-anchors"
     data-rlvr-role="pin-anchors"
     display="none">
    <circle
       id="pin-p1"
       data-pin="p1"
       cx="0.5"
       cy="0.5"
       r="0" />
    <circle
       id="pin-p2"
       data-pin="p2"
       cx="0.5"
       cy="50.338444"
       r="0" />
    <circle
       id="pin-s1"
       data-pin="s1"
       cx="37.613178"
       cy="0.5"
       r="0" />
    <circle
       id="pin-s2"
       data-pin="s2"
       cx="37.613178"
       cy="50.338444"
       r="0" />
  </g>
  <g
     id="layer1"
     transform="translate(-205.77772,50.162705)">
    <g
       id="g5870">
      <path
         d="m 206.27772,0.17573917 h 11.08534 V -3.6250889 c 2.23911,0 4.05637,-1.8559654 4.05637,-4.1427784 0,-2.2868127 -1.81726,-4.1427707 -4.05637,-4.1427707 -1.26908,0 -3.28218,0.773123 -3.27474,1.75086 0.007,0.9777366 1.93649,1.6850724 3.27474,1.6850724 2.23911,0 4.05637,-1.8559634 4.05637,-4.1427764 0,-2.286807 -1.81726,-4.142769 -4.05637,-4.142769 -1.33616,0 -3.22594,0.621618 -3.22579,1.696947 1.5e-4,1.075321 1.9061,1.738982 3.22579,1.738982 2.23911,0 4.05637,-1.855962 4.05637,-4.142775 0,-2.286809 -1.81726,-4.142771 -4.05637,-4.142771 -1.33308,0 -3.29043,0.630481 -3.29944,1.67901 -0.009,1.048533 1.93574,1.756913 3.29944,1.756913 2.23911,0 4.05637,-1.855961 4.05637,-4.142771 0,-2.286813 -1.81726,-4.14277 -4.05637,-4.14277 -1.38313,0 -3.25462,0.753465 -3.24675,1.788621 0.008,1.035155 1.9216,1.647311 3.24675,1.647311 2.23911,0 4.05637,-1.855957 4.05637,-4.14277 0,-2.286808 -1.81726,-4.142771 -4.05637,-4.142771 -1.31193,0 -3.23806,0.746274 -3.19039,1.75263 0.0477,1.006361 1.84608,1.683299 3.19039,1.683299 2.23911,0 4.05637,-1.855962 4.05637,-4.142769 0,-2.286813 -1.81726,-4.142776 -4.05637,-4.142776 -1.34094,0 -3.27053,0.681755 -3.26753,1.720312 0.003,1.038551 1.95148,1.715617 3.26753,1.715617 2.23911,0 4.05637,-1.855958 4.05637,-4.142768 0,-2.286813 -1.81726,-4.142778 -4.05637,-4.142778 -1.33208,0 -3.25418,0.653039 -3.25941,1.711235 -0.005,1.058189 1.92144,1.7247 3.25941,1.7247 2.23911,0 4.05637,-1.855962 4.05637,-4.142775 0,-2.286806 -1.8826,-4.20989 -4.05637,-4.14277 v -3.803798 l -11.08534,-9.69e-4"
         style="fill:none;stroke:#000000;stroke-width:1;stroke-linecap:round;stroke-linejoin:round;stroke-miterlimit:4;stroke-dasharray:none;stroke-dashoffset:0;stroke-opacity:1"
         id="path3254" />
      <path
         id="rect7491"
         d="M 226.19805,-40.352281 V -9.1366962"
         style="fill:#ffffff;fill-opacity:1;fill-rule:evenodd;stroke:#000000;stroke-width:1;stroke-linecap:round;stroke-linejoin:round;stroke-miterlimit:4;stroke-dasharray:none;stroke-dashoffset:0;stroke-opacity:1" />
      <path
         id="path8367"
         d="M 223.36795,-9.1366962 V -40.352281"
         style="fill:#ffffff;fill-opacity:1;fill-rule:evenodd;stroke:#000000;stroke-width:1;stroke-linecap:round;stroke-linejoin:round;stroke-miterlimit:4;stroke-dasharray:none;stroke-dashoffset:0;stroke-opacity:1" />
      <path
         id="path4642"
         style="fill:none;stroke:#000000;stroke-width:1;stroke-linecap:round;stroke-linejoin:round;stroke-miterlimit:4;stroke-dasharray:none;stroke-dashoffset:0;stroke-opacity:1"
         d="M 243.3909,0.17573917 H 232.30556 V -3.6250889 c -2.23912,0 -4.05638,-1.8559654 -4.05638,-4.1427784 0,-2.2868127 1.81726,-4.1427707 4.05638,-4.1427707 1.26908,0 3.28218,0.773123 3.27473,1.75086 -0.007,0.9777366 -1.93648,1.6850724 -3.27473,1.6850724 -2.23912,0 -4.05638,-1.8559634 -4.05638,-4.1427764 0,-2.286807 1.81726,-4.142769 4.05638,-4.142769 1.33616,0 3.22594,0.621618 3.22578,1.696947 -1.4e-4,1.075321 -1.9061,1.738982 -3.22578,1.738982 -2.23912,0 -4.05638,-1.855962 -4.05638,-4.142775 0,-2.286809 1.81726,-4.142771 4.05638,-4.142771 1.33308,0 3.29042,0.630481 3.29944,1.67901 0.009,1.048533 -1.93575,1.756913 -3.29944,1.756913 -2.23912,0 -4.05638,-1.855961 -4.05638,-4.142771 0,-2.286813 1.81726,-4.14277 4.05638,-4.14277 1.38313,0 3.25461,0.753465 3.24674,1.788621 -0.008,1.035155 -1.9216,1.647311 -3.24674,1.647311 -2.23912,0 -4.05638,-1.855957 -4.05638,-4.14277 0,-2.286808 1.81726,-4.142771 4.05638,-4.142771 1.31193,0 3.23806,0.746274 3.19039,1.75263 -0.0477,1.006361 -1.84609,1.683299 -3.19039,1.683299 -2.23912,0 -4.05638,-1.855962 -4.05638,-4.142769 0,-2.286813 1.81726,-4.142776 4.05638,-4.142776 1.34094,0 3.27053,0.681755 3.26752,1.720312 -0.003,1.038551 -1.95148,1.715617 -3.26752,1.715617 -2.23912,0 -4.05638,-1.855958 -4.05638,-4.142768 0,-2.286813 1.81726,-4.142778 4.05638,-4.142778 1.33207,0 3.25417,0.653039 3.2594,1.711235 0.005,1.058189 -1.92143,1.7247 -3.2594,1.7247 -2.23912,0 -4.05638,-1.855962 -4.05638,-4.142775 0,-2.286806 1.88261,-4.20989 4.05638,-4.14277 v -3.803798 l 11.08534,-9.69e-4" />
    </g>
  </g>
</svg>
